<svg xmlns="http://www.w3.org/2000/svg" width="86" height="86" viewBox="0 0 86 86">
  <g id="Group_65" data-name="Group 65" transform="translate(0.421)" opacity="0.11">
    <circle id="Ellipse_13" data-name="Ellipse 13" cx="2.5" cy="2.5" r="2.5" transform="translate(-0.421 0)" fill="#fff"/>
    <circle id="Ellipse_13-2" data-name="Ellipse 13" cx="2.5" cy="2.5" r="2.5" transform="translate(19.579 0)" fill="#fff"/>
    <circle id="Ellipse_13-3" data-name="Ellipse 13" cx="2" cy="2" r="2" transform="translate(40.579 0)" fill="#fff"/>
    <circle id="Ellipse_13-4" data-name="Ellipse 13" cx="2.5" cy="2.5" r="2.5" transform="translate(60.579 0)" fill="#fff"/>
    <circle id="Ellipse_13-5" data-name="Ellipse 13" cx="2" cy="2" r="2" transform="translate(81.579 0)" fill="#fff"/>
    <circle id="Ellipse_13-6" data-name="Ellipse 13" cx="2.5" cy="2.5" r="2.5" transform="translate(-0.421 20)" fill="#fff"/>
    <circle id="Ellipse_13-7" data-name="Ellipse 13" cx="2.5" cy="2.5" r="2.5" transform="translate(19.579 20)" fill="#fff"/>
    <circle id="Ellipse_13-8" data-name="Ellipse 13" cx="2" cy="2" r="2" transform="translate(40.579 20)" fill="#fff"/>
    <circle id="Ellipse_13-9" data-name="Ellipse 13" cx="2.5" cy="2.5" r="2.5" transform="translate(60.579 20)" fill="#fff"/>
    <circle id="Ellipse_13-10" data-name="Ellipse 13" cx="2" cy="2" r="2" transform="translate(81.579 20)" fill="#fff"/>
    <circle id="Ellipse_13-11" data-name="Ellipse 13" cx="2" cy="2" r="2" transform="translate(-0.421 41)" fill="#fff"/>
    <circle id="Ellipse_13-12" data-name="Ellipse 13" cx="2" cy="2" r="2" transform="translate(19.579 41)" fill="#fff"/>
    <circle id="Ellipse_13-13" data-name="Ellipse 13" cx="2" cy="2" r="2" transform="translate(40.579 41)" fill="#fff"/>
    <circle id="Ellipse_13-14" data-name="Ellipse 13" cx="2" cy="2" r="2" transform="translate(60.579 41)" fill="#fff"/>
    <circle id="Ellipse_13-15" data-name="Ellipse 13" cx="2" cy="2" r="2" transform="translate(81.579 41)" fill="#fff"/>
    <circle id="Ellipse_13-16" data-name="Ellipse 13" cx="2.5" cy="2.5" r="2.5" transform="translate(-0.421 61)" fill="#fff"/>
    <circle id="Ellipse_13-17" data-name="Ellipse 13" cx="2.5" cy="2.5" r="2.5" transform="translate(19.579 61)" fill="#fff"/>
    <circle id="Ellipse_13-18" data-name="Ellipse 13" cx="2" cy="2" r="2" transform="translate(40.579 61)" fill="#fff"/>
    <circle id="Ellipse_13-19" data-name="Ellipse 13" cx="2.5" cy="2.5" r="2.5" transform="translate(60.579 61)" fill="#fff"/>
    <circle id="Ellipse_13-20" data-name="Ellipse 13" cx="2" cy="2" r="2" transform="translate(81.579 61)" fill="#fff"/>
    <circle id="Ellipse_13-21" data-name="Ellipse 13" cx="2" cy="2" r="2" transform="translate(-0.421 82)" fill="#fff"/>
    <circle id="Ellipse_13-22" data-name="Ellipse 13" cx="2" cy="2" r="2" transform="translate(19.579 82)" fill="#fff"/>
    <circle id="Ellipse_13-23" data-name="Ellipse 13" cx="2" cy="2" r="2" transform="translate(40.579 82)" fill="#fff"/>
    <circle id="Ellipse_13-24" data-name="Ellipse 13" cx="2" cy="2" r="2" transform="translate(60.579 82)" fill="#fff"/>
    <circle id="Ellipse_13-25" data-name="Ellipse 13" cx="2" cy="2" r="2" transform="translate(81.579 82)" fill="#fff"/>
  </g>
</svg>
